<svg width="326" height="239" viewBox="0 0 326 239" fill="none" xmlns="http://www.w3.org/2000/svg">
<g opacity="0.25" filter="url(#filter0_d_53_51)">
<path d="M182.316 0.325333C178.897 1.28227 174.365 4.82114 171.131 9.02808C169.422 11.2489 166.229 16.7739 164.664 20.2586C161.224 27.9322 159.597 35.1002 159.349 43.8572C159.164 50.1766 159.617 55.5752 161.162 65.6863C161.965 70.9765 161.986 71.1932 161.615 71.4821C161.409 71.6446 159.308 73.2154 156.919 74.9487C139.843 87.4431 130.986 95.8931 124.498 105.914C120.728 111.746 118.195 118.499 117.247 125.197C116.918 127.472 116.918 132.726 117.247 135.218C118.153 142.278 120.914 149.464 124.951 155.35C127.793 159.503 132.675 164.378 137.042 167.429C145.281 173.171 154.735 176.818 163.654 177.667C166.27 177.919 173.706 177.757 176.178 177.414C177.146 177.269 177.97 177.179 177.99 177.215C178.032 177.233 178.856 182.361 179.824 188.608L181.575 199.947L181.616 204.19C181.636 208.686 181.513 209.805 180.565 212.766C178.382 219.7 172.779 224.25 164.787 225.586C162.666 225.947 158.072 225.929 155.745 225.586C151.811 224.972 148.597 223.708 146.62 221.993L145.384 220.909L147.547 220.765C154.035 220.314 158.031 218.309 160.214 214.428C161.286 212.514 161.615 210.889 161.492 208.072C161.306 203.973 160.029 201.211 157.125 198.683C155.292 197.076 153.891 196.282 151.625 195.56C150.266 195.126 149.854 195.072 147.238 195.072C144.951 195.072 144.127 195.144 143.221 195.415C138.236 196.914 134.591 200.11 132.943 204.461C132.057 206.772 131.81 208.415 131.954 210.961C132.387 218.328 137.268 224.9 144.869 228.348C147.155 229.396 149.256 230.046 152.161 230.587C154.88 231.093 161.43 231.147 164.313 230.678C172.779 229.269 178.835 226.055 182.707 220.873C186.868 215.312 187.857 209.029 186.188 198.503C184.417 187.182 182.749 176.168 182.81 176.132C182.852 176.096 183.614 175.861 184.52 175.59C190.658 173.694 196.838 170.029 200.792 165.894C207.24 159.16 210.164 150.746 209.361 141.231C208.887 135.597 207.734 131.661 205.303 127.364C202.976 123.229 199.742 119.817 195.643 117.108C193.563 115.736 189.299 113.804 186.786 113.1C183.016 112.017 178.196 111.457 174.798 111.674C172.923 111.782 172.903 111.782 172.8 111.367C172.738 111.132 172.347 108.731 171.955 106.058C171.543 103.368 170.761 98.1862 170.184 94.5029L169.154 87.8223L169.731 87.389C171.605 85.9987 177.743 80.889 180.318 78.596C190.741 69.2432 195.808 59.8543 197.497 46.746C198.671 37.5016 198.733 31.4169 197.682 24.8086C196.281 15.9072 193.398 8.48642 189.422 3.55727C186.683 0.144775 185.262 -0.505219 182.316 0.325333ZM188.166 20.71C190.226 21.5044 191.709 23.2739 192.368 25.7475C192.759 27.228 192.8 30.7127 192.45 32.753C191.626 37.7002 188.64 44.7238 185.365 49.4544C182.337 53.7877 176.425 60.0349 171.729 63.8085C168.351 66.5349 166.291 68.1057 166.208 68.0335C166.126 67.9613 165.694 65.3793 165.261 62.4002C164.21 55.0696 164.746 48.6238 166.991 41.8349C169.71 33.6919 173.356 27.535 177.826 23.635C180.05 21.703 181.348 20.9447 183.387 20.4392C184.623 20.1322 186.951 20.2586 188.166 20.71ZM166.682 102.195L168.268 112.613L167.115 112.919C162.398 114.201 156.672 117.56 153.273 121.026C148.103 126.317 145.24 132.492 144.931 139.01C144.622 145.925 147.444 152.605 152.593 157.174C155.539 159.81 158.896 161.471 162.418 162.085C163.881 162.337 164.046 162.337 164.519 162.049C165.137 161.705 165.22 161.037 164.725 160.586C164.54 160.424 163.819 160.044 163.119 159.737C157.99 157.48 154.653 153.436 153.603 148.164C152.099 140.671 157.31 132.311 165.529 128.989C166.909 128.429 170.349 127.508 170.513 127.671C170.534 127.689 172.099 137.836 173.974 150.204C176.301 165.515 177.311 172.719 177.167 172.792C177.043 172.864 176.013 173.044 174.86 173.207C169.01 173.983 162.892 174.037 158.793 173.315C150.389 171.853 141.326 167.249 136.156 161.778C129.874 155.169 126.928 148.326 126.928 140.418C126.928 136.139 127.567 132.744 129.112 128.628C131.975 120.972 136.65 114.743 145.487 106.817C150.945 101.906 164.89 90.964 165.034 91.4876C165.076 91.6501 165.817 96.4709 166.682 102.195ZM178.959 127.743C182.378 128.321 186.271 129.801 188.99 131.607C190.947 132.907 193.83 135.651 194.984 137.331C197.764 141.393 198.774 145.076 198.568 150.475C198.321 157.535 195.849 162.897 191.008 166.887C188.804 168.711 184.561 170.968 182.543 171.419L182.028 171.528L181.472 167.862C181.163 165.84 180.359 160.622 179.68 156.253C176.116 133.069 175.354 128.05 175.354 127.689C175.354 127.31 175.416 127.292 176.343 127.382C176.878 127.436 178.052 127.599 178.959 127.743Z" fill="white"/>
</g>
<g filter="url(#filter1_d_53_51)">
<path d="M4 157L322 157" stroke="#BDBDBD"/>
</g>
<g filter="url(#filter2_d_53_51)">
<path d="M40.3066 163.212C40.9922 163.212 41.6439 163.356 42.2617 163.644C42.888 163.931 43.417 164.329 43.8486 164.837C44.2041 165.269 44.4792 165.772 44.6738 166.348C44.8685 166.923 44.9658 167.541 44.9658 168.201C44.9658 168.938 44.8473 169.615 44.6104 170.232C44.3818 170.842 44.056 171.367 43.6328 171.807C43.2181 172.247 42.7188 172.59 42.1348 172.835C41.5592 173.08 40.9245 173.203 40.2305 173.203C39.528 173.203 38.8848 173.08 38.3008 172.835C37.7168 172.59 37.2174 172.247 36.8027 171.807C36.388 171.358 36.0664 170.825 35.8379 170.207C35.6094 169.589 35.4951 168.908 35.4951 168.163C35.4951 167.435 35.6136 166.767 35.8506 166.157C36.0876 165.548 36.4176 165.027 36.8408 164.596C37.264 164.156 37.7676 163.817 38.3516 163.58C38.944 163.335 39.5957 163.212 40.3066 163.212ZM40.1797 163.72C39.7819 163.72 39.401 163.813 39.0371 163.999C38.6732 164.177 38.3558 164.426 38.085 164.748C37.9411 164.917 37.8099 165.129 37.6914 165.383C37.5814 165.637 37.484 165.916 37.3994 166.221C37.3148 166.517 37.2513 166.834 37.209 167.173C37.1667 167.511 37.1455 167.85 37.1455 168.188C37.1455 169.06 37.2598 169.835 37.4883 170.512C37.7168 171.189 38.0342 171.697 38.4404 172.035C38.9482 172.467 39.5492 172.683 40.2432 172.683C40.6071 172.683 40.9499 172.615 41.2715 172.479C41.6016 172.344 41.8893 172.154 42.1348 171.908C42.9219 171.138 43.3154 169.877 43.3154 168.125C43.3154 167.287 43.1969 166.542 42.96 165.891C42.7314 165.239 42.4098 164.735 41.9951 164.38C41.4619 163.94 40.8568 163.72 40.1797 163.72ZM49.9424 166.932H48.165V171.502C48.165 171.773 48.1777 171.993 48.2031 172.162C48.237 172.323 48.3005 172.45 48.3936 172.543C48.4867 172.628 48.6221 172.691 48.7998 172.733C48.9775 172.767 49.2145 172.788 49.5107 172.797V173H45.7529V172.797C46.0153 172.78 46.2227 172.755 46.375 172.721C46.5358 172.678 46.6585 172.611 46.7432 172.518C46.8278 172.424 46.8828 172.298 46.9082 172.137C46.9336 171.976 46.9463 171.764 46.9463 171.502V166.932H45.7656V166.449H46.9463C46.9463 166.161 46.9548 165.912 46.9717 165.7C46.9971 165.48 47.0267 165.285 47.0605 165.116C47.1029 164.938 47.1536 164.773 47.2129 164.621C47.2806 164.469 47.361 164.312 47.4541 164.151C47.6403 163.83 47.9111 163.576 48.2666 163.39C48.6305 163.195 49.041 163.098 49.498 163.098C49.9382 163.098 50.2979 163.182 50.5771 163.352C50.8649 163.521 51.0088 163.737 51.0088 163.999C51.0088 164.168 50.9495 164.312 50.8311 164.431C50.721 164.549 50.5771 164.608 50.3994 164.608C50.2809 164.608 50.1709 164.57 50.0693 164.494C49.9678 164.41 49.862 164.27 49.752 164.075C49.625 163.864 49.5023 163.72 49.3838 163.644C49.2738 163.559 49.1383 163.517 48.9775 163.517C48.4274 163.517 48.1523 163.944 48.1523 164.799V166.449H49.9424V166.932ZM52.8877 166.373V171.527C52.8877 171.79 52.8962 172.001 52.9131 172.162C52.9385 172.314 52.9893 172.437 53.0654 172.53C53.1416 172.615 53.2474 172.674 53.3828 172.708C53.5267 172.742 53.7214 172.771 53.9668 172.797V173H50.5264V172.797C50.7803 172.78 50.9792 172.755 51.123 172.721C51.2754 172.678 51.3896 172.615 51.4658 172.53C51.5505 172.437 51.6055 172.314 51.6309 172.162C51.6562 172.001 51.6689 171.79 51.6689 171.527V168.163C51.6689 167.841 51.6309 167.617 51.5547 167.49C51.487 167.355 51.3685 167.287 51.1992 167.287C51.1315 167.287 51.0511 167.291 50.958 167.3C50.8734 167.308 50.7845 167.321 50.6914 167.338L50.5898 167.351V167.135L52.8242 166.335L52.8877 166.373ZM52.1641 163.098C52.3672 163.098 52.5407 163.174 52.6846 163.326C52.8285 163.47 52.9004 163.644 52.9004 163.847C52.9004 164.058 52.8285 164.236 52.6846 164.38C52.5492 164.515 52.3714 164.583 52.1514 164.583C51.9398 164.583 51.7663 164.515 51.6309 164.38C51.4954 164.236 51.4277 164.058 51.4277 163.847C51.4277 163.644 51.4997 163.47 51.6436 163.326C51.7874 163.174 51.9609 163.098 52.1641 163.098ZM60.3018 170.867C60.1833 171.096 60.0732 171.295 59.9717 171.464C59.8786 171.625 59.7855 171.773 59.6924 171.908C59.6077 172.035 59.5189 172.149 59.4258 172.251C59.3327 172.353 59.2311 172.446 59.1211 172.53C58.6133 172.937 58.0505 173.14 57.4326 173.14C57.0348 173.14 56.6667 173.063 56.3281 172.911C55.9896 172.75 55.6976 172.526 55.4521 172.238C55.2152 171.951 55.029 171.612 54.8936 171.223C54.7581 170.833 54.6904 170.402 54.6904 169.928C54.6904 169.327 54.792 168.777 54.9951 168.277C55.2067 167.77 55.5072 167.355 55.8965 167.033C56.1927 166.788 56.5059 166.606 56.8359 166.487C57.1745 166.36 57.5173 166.297 57.8643 166.297C58.1689 166.297 58.4567 166.339 58.7275 166.424C58.9984 166.5 59.2354 166.606 59.4385 166.741C59.6416 166.877 59.8024 167.037 59.9209 167.224C60.0394 167.401 60.0986 167.592 60.0986 167.795C60.0986 167.964 60.0309 168.112 59.8955 168.239C59.7686 168.366 59.612 168.43 59.4258 168.43C59.2565 168.43 59.1126 168.366 58.9941 168.239C58.8757 168.112 58.7868 167.943 58.7275 167.731L58.6387 167.414C58.571 167.143 58.4736 166.961 58.3467 166.868C58.2282 166.775 58.0378 166.729 57.7754 166.729C57.4792 166.729 57.2083 166.792 56.9629 166.919C56.7259 167.037 56.5228 167.211 56.3535 167.439C56.1842 167.668 56.0488 167.939 55.9473 168.252C55.8542 168.565 55.8076 168.912 55.8076 169.293C55.8076 169.699 55.8626 170.076 55.9727 170.423C56.0827 170.77 56.235 171.066 56.4297 171.312C56.6243 171.557 56.8571 171.752 57.1279 171.896C57.4072 172.031 57.7119 172.099 58.042 172.099C58.4567 172.099 58.8164 172.001 59.1211 171.807C59.4258 171.604 59.7516 171.248 60.0986 170.74L60.3018 170.867ZM63.3613 166.373V171.527C63.3613 171.79 63.3698 172.001 63.3867 172.162C63.4121 172.314 63.4629 172.437 63.5391 172.53C63.6152 172.615 63.721 172.674 63.8564 172.708C64.0003 172.742 64.195 172.771 64.4404 172.797V173H61V172.797C61.2539 172.78 61.4528 172.755 61.5967 172.721C61.749 172.678 61.8633 172.615 61.9395 172.53C62.0241 172.437 62.0791 172.314 62.1045 172.162C62.1299 172.001 62.1426 171.79 62.1426 171.527V168.163C62.1426 167.841 62.1045 167.617 62.0283 167.49C61.9606 167.355 61.8421 167.287 61.6729 167.287C61.6051 167.287 61.5247 167.291 61.4316 167.3C61.347 167.308 61.2581 167.321 61.165 167.338L61.0635 167.351V167.135L63.2979 166.335L63.3613 166.373ZM62.6377 163.098C62.8408 163.098 63.0143 163.174 63.1582 163.326C63.3021 163.47 63.374 163.644 63.374 163.847C63.374 164.058 63.3021 164.236 63.1582 164.38C63.0228 164.515 62.8451 164.583 62.625 164.583C62.4134 164.583 62.2399 164.515 62.1045 164.38C61.9691 164.236 61.9014 164.058 61.9014 163.847C61.9014 163.644 61.9733 163.47 62.1172 163.326C62.2611 163.174 62.4346 163.098 62.6377 163.098ZM65.0371 166.982C65.4349 166.872 65.7777 166.771 66.0654 166.678C66.3617 166.585 66.6833 166.47 67.0303 166.335L67.1445 166.36V167.516C67.39 167.287 67.6058 167.097 67.792 166.944C67.9782 166.792 68.1475 166.674 68.2998 166.589C68.4606 166.496 68.613 166.432 68.7568 166.398C68.9092 166.356 69.07 166.335 69.2393 166.335C69.7725 166.335 70.1914 166.525 70.4961 166.906C70.8008 167.287 70.9531 167.82 70.9531 168.506V171.832C70.9531 172.179 71.0124 172.416 71.1309 172.543C71.2493 172.67 71.4821 172.755 71.8291 172.797V173H68.8203V172.797C68.998 172.78 69.1462 172.75 69.2646 172.708C69.3831 172.666 69.4762 172.598 69.5439 172.505C69.6201 172.412 69.6709 172.289 69.6963 172.137C69.7217 171.984 69.7344 171.794 69.7344 171.565V168.531C69.7344 167.6 69.3831 167.135 68.6807 167.135C68.5622 167.135 68.4479 167.147 68.3379 167.173C68.2279 167.198 68.1136 167.241 67.9951 167.3C67.8851 167.359 67.7624 167.444 67.627 167.554C67.5 167.664 67.3477 167.799 67.1699 167.96V172.035C67.1699 172.298 67.2376 172.484 67.373 172.594C67.5085 172.695 67.7624 172.763 68.1348 172.797V173H65.0625V172.797C65.2487 172.78 65.3968 172.755 65.5068 172.721C65.6253 172.678 65.7184 172.615 65.7861 172.53C65.8538 172.446 65.9004 172.34 65.9258 172.213C65.9512 172.077 65.9639 171.908 65.9639 171.705V168.1C65.9639 167.744 65.9258 167.503 65.8496 167.376C65.7734 167.241 65.6338 167.173 65.4307 167.173C65.2783 167.173 65.1471 167.194 65.0371 167.236V166.982ZM77.3896 171.477C77.3896 171.798 77.4193 172.022 77.4785 172.149C77.5378 172.268 77.652 172.327 77.8213 172.327C78.016 172.327 78.2275 172.238 78.4561 172.061V172.429C78.2106 172.7 77.9948 172.886 77.8086 172.987C77.6224 173.089 77.4066 173.14 77.1611 173.14C76.8649 173.14 76.6449 173.059 76.501 172.898C76.3656 172.729 76.2809 172.45 76.2471 172.061C75.807 172.441 75.4219 172.716 75.0918 172.886C74.7617 173.055 74.4401 173.14 74.127 173.14C73.6699 173.14 73.2975 172.996 73.0098 172.708C72.7305 172.42 72.5908 172.048 72.5908 171.591C72.5908 171.362 72.6331 171.134 72.7178 170.905C72.8109 170.668 72.9421 170.478 73.1113 170.334C73.2637 170.199 73.4033 170.084 73.5303 169.991C73.6657 169.89 73.8392 169.788 74.0508 169.687C74.2624 169.576 74.5374 169.454 74.876 169.318C75.2145 169.183 75.6631 169.001 76.2217 168.772V167.846C76.2217 167.448 76.1243 167.147 75.9297 166.944C75.7435 166.741 75.4727 166.64 75.1172 166.64C74.821 166.64 74.5713 166.712 74.3682 166.855C74.1735 166.991 74.0762 167.156 74.0762 167.351C74.0762 167.427 74.0846 167.524 74.1016 167.643C74.127 167.761 74.1396 167.858 74.1396 167.935C74.1396 168.104 74.0719 168.248 73.9365 168.366C73.8096 168.485 73.6615 168.544 73.4922 168.544C73.3229 168.544 73.1748 168.485 73.0479 168.366C72.9294 168.239 72.8701 168.091 72.8701 167.922C72.8701 167.736 72.9209 167.545 73.0225 167.351C73.1325 167.156 73.2806 166.982 73.4668 166.83C73.6615 166.661 73.9196 166.53 74.2412 166.437C74.5713 166.343 74.9268 166.297 75.3076 166.297C75.7477 166.297 76.1159 166.373 76.4121 166.525C76.7168 166.669 76.9495 166.872 77.1104 167.135C77.2119 167.304 77.2839 167.503 77.3262 167.731C77.3685 167.951 77.3896 168.252 77.3896 168.633V171.477ZM76.2217 169.128C75.7816 169.289 75.4049 169.445 75.0918 169.598C74.7871 169.742 74.5374 169.894 74.3428 170.055C74.1566 170.207 74.0212 170.372 73.9365 170.55C73.8519 170.728 73.8096 170.922 73.8096 171.134V171.197C73.8096 171.35 73.835 171.498 73.8857 171.642C73.9365 171.777 74.0042 171.896 74.0889 171.997C74.182 172.099 74.2878 172.179 74.4062 172.238C74.5247 172.298 74.6475 172.327 74.7744 172.327C74.9268 172.327 75.096 172.298 75.2822 172.238C75.4769 172.171 75.6589 172.09 75.8281 171.997C75.9974 171.904 76.1032 171.807 76.1455 171.705C76.1963 171.604 76.2217 171.443 76.2217 171.223V169.128ZM87.2285 173.102V172.162C86.9831 172.518 86.7122 172.771 86.416 172.924C86.1283 173.068 85.7812 173.14 85.375 173.14C84.9688 173.14 84.6006 173.068 84.2705 172.924C83.9404 172.771 83.6569 172.56 83.4199 172.289C83.1914 172.01 83.0094 171.68 82.874 171.299C82.7471 170.918 82.6836 170.495 82.6836 170.029C82.6836 169.513 82.764 169.031 82.9248 168.582C83.0856 168.133 83.3014 167.74 83.5723 167.401C83.8431 167.063 84.1605 166.796 84.5244 166.602C84.8968 166.407 85.2904 166.31 85.7051 166.31C86.0013 166.31 86.2594 166.356 86.4795 166.449C86.6995 166.534 86.9492 166.695 87.2285 166.932V164.697C87.2285 164.401 87.182 164.202 87.0889 164.101C87.0042 163.999 86.8265 163.948 86.5557 163.948C86.4964 163.948 86.4414 163.952 86.3906 163.961C86.3483 163.961 86.2975 163.965 86.2383 163.974V163.72C86.4668 163.66 86.6742 163.61 86.8604 163.567C87.0465 163.517 87.2201 163.47 87.3809 163.428C87.5501 163.377 87.7109 163.326 87.8633 163.275C88.0241 163.225 88.1934 163.165 88.3711 163.098L88.4473 163.136V171.35C88.4473 171.688 88.4854 171.912 88.5615 172.022C88.6462 172.124 88.8197 172.175 89.082 172.175C89.1243 172.175 89.1751 172.175 89.2344 172.175C89.3021 172.166 89.3656 172.162 89.4248 172.162V172.391L87.292 173.14L87.2285 173.102ZM87.2285 168.163C87.2285 167.977 87.1862 167.799 87.1016 167.63C87.0254 167.452 86.9196 167.296 86.7842 167.16C86.6488 167.025 86.488 166.919 86.3018 166.843C86.124 166.758 85.9378 166.716 85.7432 166.716C85.4723 166.716 85.2227 166.784 84.9941 166.919C84.7741 167.046 84.5837 167.232 84.4229 167.478C84.2705 167.715 84.152 168.002 84.0674 168.341C83.9827 168.671 83.9404 169.039 83.9404 169.445C83.9404 169.894 83.987 170.3 84.0801 170.664C84.1732 171.028 84.3044 171.337 84.4736 171.591C84.6514 171.845 84.863 172.044 85.1084 172.188C85.3538 172.323 85.6289 172.391 85.9336 172.391C86.3906 172.391 86.7461 172.238 87 171.934C87.1523 171.764 87.2285 171.629 87.2285 171.527V168.163ZM95.6963 170.728C95.3916 171.523 94.9769 172.124 94.4521 172.53C93.9359 172.937 93.3265 173.14 92.624 173.14C92.2093 173.14 91.8327 173.063 91.4941 172.911C91.1641 172.759 90.8805 172.543 90.6436 172.264C90.4066 171.984 90.2246 171.646 90.0977 171.248C89.9707 170.85 89.9072 170.402 89.9072 169.902C89.9072 169.369 89.9792 168.882 90.123 168.442C90.2754 168.002 90.4827 167.626 90.7451 167.312C91.016 166.991 91.3376 166.741 91.71 166.563C92.0824 166.386 92.4928 166.297 92.9414 166.297C93.3223 166.297 93.6693 166.369 93.9824 166.513C94.304 166.657 94.5749 166.86 94.7949 167.122C94.888 167.241 94.9642 167.359 95.0234 167.478C95.0911 167.596 95.1462 167.727 95.1885 167.871C95.2393 168.015 95.2816 168.176 95.3154 168.354C95.3493 168.531 95.3831 168.734 95.417 168.963H90.9609C90.9779 169.428 91.016 169.813 91.0752 170.118C91.1429 170.414 91.2487 170.702 91.3926 170.981C91.8073 171.76 92.4167 172.149 93.2207 172.149C93.6862 172.149 94.0882 172.035 94.4268 171.807C94.7738 171.578 95.1208 171.189 95.4678 170.639L95.6963 170.728ZM93.9443 168.48C93.8512 167.854 93.6989 167.423 93.4873 167.186C93.2842 166.94 92.9626 166.817 92.5225 166.817C92.0739 166.817 91.7227 166.949 91.4688 167.211C91.2233 167.473 91.0625 167.896 90.9863 168.48H93.9443ZM105.865 173H105.649L102.006 165.04V170.867C102.006 171.24 102.023 171.544 102.057 171.781C102.099 172.01 102.171 172.192 102.272 172.327C102.374 172.463 102.514 172.56 102.691 172.619C102.869 172.678 103.098 172.716 103.377 172.733V173H99.9746V172.733C100.271 172.708 100.508 172.67 100.686 172.619C100.872 172.56 101.011 172.463 101.104 172.327C101.206 172.192 101.274 172.01 101.308 171.781C101.341 171.544 101.358 171.24 101.358 170.867V164.989C101.358 164.727 101.341 164.515 101.308 164.354C101.282 164.194 101.219 164.067 101.117 163.974C101.024 163.881 100.889 163.817 100.711 163.783C100.533 163.741 100.296 163.711 100 163.694V163.402H102.869L106.208 170.728L109.433 163.402H112.302V163.694C112.031 163.711 111.815 163.741 111.654 163.783C111.493 163.826 111.367 163.893 111.273 163.986C111.18 164.079 111.117 164.206 111.083 164.367C111.058 164.528 111.045 164.735 111.045 164.989V171.438C111.045 171.692 111.062 171.9 111.096 172.061C111.13 172.221 111.189 172.348 111.273 172.441C111.367 172.535 111.493 172.602 111.654 172.645C111.824 172.687 112.039 172.716 112.302 172.733V173H108.239V172.733C108.527 172.716 108.756 172.687 108.925 172.645C109.103 172.602 109.238 172.53 109.331 172.429C109.424 172.319 109.483 172.175 109.509 171.997C109.543 171.811 109.56 171.565 109.56 171.261V164.697L105.865 173ZM119.64 172.492C119.267 172.585 118.933 172.678 118.637 172.771C118.34 172.865 118.006 172.983 117.634 173.127L117.596 173.102V171.896L116.961 172.518C116.766 172.721 116.538 172.877 116.275 172.987C116.013 173.089 115.746 173.14 115.476 173.14C114.942 173.14 114.515 172.97 114.193 172.632C113.88 172.293 113.724 171.836 113.724 171.261V167.63C113.724 167.291 113.66 167.059 113.533 166.932C113.415 166.805 113.178 166.729 112.822 166.703V166.449H114.93V171.21C114.93 171.515 115.031 171.777 115.234 171.997C115.438 172.209 115.683 172.314 115.971 172.314C116.191 172.314 116.411 172.272 116.631 172.188C116.859 172.094 117.071 171.959 117.266 171.781C117.359 171.714 117.426 171.625 117.469 171.515C117.511 171.396 117.532 171.24 117.532 171.045V167.617C117.532 167.439 117.515 167.296 117.481 167.186C117.456 167.067 117.401 166.974 117.316 166.906C117.24 166.839 117.13 166.792 116.986 166.767C116.842 166.733 116.66 166.712 116.44 166.703V166.449H118.738V171.451C118.738 171.79 118.793 172.014 118.903 172.124C119.013 172.226 119.233 172.276 119.563 172.276H119.64V172.492ZM116.682 163.809C116.842 163.648 116.965 163.542 117.05 163.491C117.143 163.44 117.24 163.415 117.342 163.415C117.469 163.415 117.579 163.462 117.672 163.555C117.765 163.648 117.812 163.758 117.812 163.885C117.812 163.978 117.778 164.071 117.71 164.164C117.651 164.249 117.57 164.325 117.469 164.393L115.374 165.688H114.828L116.682 163.809ZM124.273 168.455C124.113 167.803 123.914 167.342 123.677 167.071C123.44 166.8 123.114 166.665 122.699 166.665C122.361 166.665 122.09 166.758 121.887 166.944C121.684 167.122 121.582 167.359 121.582 167.655C121.582 168.07 121.789 168.4 122.204 168.646L123.766 169.572C124.206 169.835 124.519 170.097 124.705 170.359C124.891 170.613 124.984 170.922 124.984 171.286C124.984 171.54 124.929 171.781 124.819 172.01C124.709 172.238 124.561 172.437 124.375 172.606C124.197 172.767 123.986 172.898 123.74 173C123.495 173.093 123.232 173.14 122.953 173.14C122.801 173.14 122.636 173.127 122.458 173.102C122.28 173.085 122.086 173.051 121.874 173C121.705 172.958 121.574 172.928 121.48 172.911C121.387 172.894 121.299 172.886 121.214 172.886C121.129 172.886 121.066 172.898 121.023 172.924C120.981 172.949 120.935 172.996 120.884 173.063H120.693V170.804H120.922C121.007 171.176 121.104 171.489 121.214 171.743C121.324 171.997 121.451 172.204 121.595 172.365C121.739 172.526 121.908 172.645 122.103 172.721C122.297 172.788 122.517 172.822 122.763 172.822C123.144 172.822 123.44 172.729 123.651 172.543C123.871 172.357 123.981 172.103 123.981 171.781C123.981 171.35 123.728 170.99 123.22 170.702L122.382 170.22C122.069 170.042 121.802 169.873 121.582 169.712C121.37 169.551 121.197 169.39 121.062 169.229C120.926 169.06 120.829 168.887 120.77 168.709C120.71 168.531 120.681 168.341 120.681 168.138C120.681 167.875 120.727 167.634 120.82 167.414C120.922 167.194 121.057 167.004 121.227 166.843C121.404 166.682 121.616 166.559 121.861 166.475C122.107 166.39 122.378 166.348 122.674 166.348C123.012 166.348 123.338 166.407 123.651 166.525C123.829 166.602 123.965 166.64 124.058 166.64C124.091 166.64 124.117 166.631 124.134 166.614C124.151 166.597 124.193 166.559 124.261 166.5L124.273 166.475H124.451L124.502 168.455H124.273ZM128.171 166.373V171.527C128.171 171.79 128.179 172.001 128.196 172.162C128.222 172.314 128.272 172.437 128.349 172.53C128.425 172.615 128.531 172.674 128.666 172.708C128.81 172.742 129.005 172.771 129.25 172.797V173H125.81V172.797C126.063 172.78 126.262 172.755 126.406 172.721C126.559 172.678 126.673 172.615 126.749 172.53C126.834 172.437 126.889 172.314 126.914 172.162C126.939 172.001 126.952 171.79 126.952 171.527V168.163C126.952 167.841 126.914 167.617 126.838 167.49C126.77 167.355 126.652 167.287 126.482 167.287C126.415 167.287 126.334 167.291 126.241 167.3C126.157 167.308 126.068 167.321 125.975 167.338L125.873 167.351V167.135L128.107 166.335L128.171 166.373ZM127.447 163.098C127.65 163.098 127.824 163.174 127.968 163.326C128.112 163.47 128.184 163.644 128.184 163.847C128.184 164.058 128.112 164.236 127.968 164.38C127.832 164.515 127.655 164.583 127.435 164.583C127.223 164.583 127.049 164.515 126.914 164.38C126.779 164.236 126.711 164.058 126.711 163.847C126.711 163.644 126.783 163.47 126.927 163.326C127.071 163.174 127.244 163.098 127.447 163.098ZM135.585 170.867C135.466 171.096 135.356 171.295 135.255 171.464C135.162 171.625 135.069 171.773 134.976 171.908C134.891 172.035 134.802 172.149 134.709 172.251C134.616 172.353 134.514 172.446 134.404 172.53C133.896 172.937 133.334 173.14 132.716 173.14C132.318 173.14 131.95 173.063 131.611 172.911C131.273 172.75 130.981 172.526 130.735 172.238C130.498 171.951 130.312 171.612 130.177 171.223C130.041 170.833 129.974 170.402 129.974 169.928C129.974 169.327 130.075 168.777 130.278 168.277C130.49 167.77 130.79 167.355 131.18 167.033C131.476 166.788 131.789 166.606 132.119 166.487C132.458 166.36 132.8 166.297 133.147 166.297C133.452 166.297 133.74 166.339 134.011 166.424C134.282 166.5 134.519 166.606 134.722 166.741C134.925 166.877 135.086 167.037 135.204 167.224C135.323 167.401 135.382 167.592 135.382 167.795C135.382 167.964 135.314 168.112 135.179 168.239C135.052 168.366 134.895 168.43 134.709 168.43C134.54 168.43 134.396 168.366 134.277 168.239C134.159 168.112 134.07 167.943 134.011 167.731L133.922 167.414C133.854 167.143 133.757 166.961 133.63 166.868C133.511 166.775 133.321 166.729 133.059 166.729C132.762 166.729 132.492 166.792 132.246 166.919C132.009 167.037 131.806 167.211 131.637 167.439C131.467 167.668 131.332 167.939 131.23 168.252C131.137 168.565 131.091 168.912 131.091 169.293C131.091 169.699 131.146 170.076 131.256 170.423C131.366 170.77 131.518 171.066 131.713 171.312C131.908 171.557 132.14 171.752 132.411 171.896C132.69 172.031 132.995 172.099 133.325 172.099C133.74 172.099 134.1 172.001 134.404 171.807C134.709 171.604 135.035 171.248 135.382 170.74L135.585 170.867ZM141.387 171.477C141.387 171.798 141.416 172.022 141.476 172.149C141.535 172.268 141.649 172.327 141.818 172.327C142.013 172.327 142.225 172.238 142.453 172.061V172.429C142.208 172.7 141.992 172.886 141.806 172.987C141.619 173.089 141.404 173.14 141.158 173.14C140.862 173.14 140.642 173.059 140.498 172.898C140.363 172.729 140.278 172.45 140.244 172.061C139.804 172.441 139.419 172.716 139.089 172.886C138.759 173.055 138.437 173.14 138.124 173.14C137.667 173.14 137.295 172.996 137.007 172.708C136.728 172.42 136.588 172.048 136.588 171.591C136.588 171.362 136.63 171.134 136.715 170.905C136.808 170.668 136.939 170.478 137.108 170.334C137.261 170.199 137.4 170.084 137.527 169.991C137.663 169.89 137.836 169.788 138.048 169.687C138.259 169.576 138.535 169.454 138.873 169.318C139.212 169.183 139.66 169.001 140.219 168.772V167.846C140.219 167.448 140.121 167.147 139.927 166.944C139.741 166.741 139.47 166.64 139.114 166.64C138.818 166.64 138.568 166.712 138.365 166.855C138.171 166.991 138.073 167.156 138.073 167.351C138.073 167.427 138.082 167.524 138.099 167.643C138.124 167.761 138.137 167.858 138.137 167.935C138.137 168.104 138.069 168.248 137.934 168.366C137.807 168.485 137.659 168.544 137.489 168.544C137.32 168.544 137.172 168.485 137.045 168.366C136.926 168.239 136.867 168.091 136.867 167.922C136.867 167.736 136.918 167.545 137.02 167.351C137.13 167.156 137.278 166.982 137.464 166.83C137.659 166.661 137.917 166.53 138.238 166.437C138.568 166.343 138.924 166.297 139.305 166.297C139.745 166.297 140.113 166.373 140.409 166.525C140.714 166.669 140.947 166.872 141.107 167.135C141.209 167.304 141.281 167.503 141.323 167.731C141.366 167.951 141.387 168.252 141.387 168.633V171.477ZM140.219 169.128C139.779 169.289 139.402 169.445 139.089 169.598C138.784 169.742 138.535 169.894 138.34 170.055C138.154 170.207 138.018 170.372 137.934 170.55C137.849 170.728 137.807 170.922 137.807 171.134V171.197C137.807 171.35 137.832 171.498 137.883 171.642C137.934 171.777 138.001 171.896 138.086 171.997C138.179 172.099 138.285 172.179 138.403 172.238C138.522 172.298 138.645 172.327 138.771 172.327C138.924 172.327 139.093 172.298 139.279 172.238C139.474 172.171 139.656 172.09 139.825 171.997C139.994 171.904 140.1 171.807 140.143 171.705C140.193 171.604 140.219 171.443 140.219 171.223V169.128ZM149.194 164.012C148.788 164.012 148.454 164.033 148.191 164.075C147.938 164.118 147.726 164.206 147.557 164.342C147.396 164.477 147.265 164.668 147.163 164.913C147.07 165.15 146.981 165.467 146.896 165.865H146.541L146.63 163.402H154.806L154.895 165.865H154.539C154.454 165.467 154.361 165.15 154.26 164.913C154.167 164.668 154.04 164.477 153.879 164.342C153.718 164.206 153.507 164.118 153.244 164.075C152.982 164.033 152.643 164.012 152.229 164.012H151.454V171.438C151.454 171.701 151.471 171.912 151.505 172.073C151.539 172.234 151.602 172.361 151.695 172.454C151.797 172.547 151.937 172.615 152.114 172.657C152.3 172.691 152.542 172.716 152.838 172.733V173H148.623V172.733C148.919 172.716 149.156 172.691 149.334 172.657C149.512 172.615 149.647 172.543 149.74 172.441C149.842 172.331 149.905 172.183 149.931 171.997C149.965 171.811 149.981 171.565 149.981 171.261V164.012H149.194ZM160.48 171.477C160.48 171.798 160.51 172.022 160.569 172.149C160.629 172.268 160.743 172.327 160.912 172.327C161.107 172.327 161.318 172.238 161.547 172.061V172.429C161.301 172.7 161.086 172.886 160.899 172.987C160.713 173.089 160.497 173.14 160.252 173.14C159.956 173.14 159.736 173.059 159.592 172.898C159.456 172.729 159.372 172.45 159.338 172.061C158.898 172.441 158.513 172.716 158.183 172.886C157.853 173.055 157.531 173.14 157.218 173.14C156.761 173.14 156.388 172.996 156.101 172.708C155.821 172.42 155.682 172.048 155.682 171.591C155.682 171.362 155.724 171.134 155.809 170.905C155.902 170.668 156.033 170.478 156.202 170.334C156.354 170.199 156.494 170.084 156.621 169.991C156.757 169.89 156.93 169.788 157.142 169.687C157.353 169.576 157.628 169.454 157.967 169.318C158.305 169.183 158.754 169.001 159.312 168.772V167.846C159.312 167.448 159.215 167.147 159.021 166.944C158.834 166.741 158.563 166.64 158.208 166.64C157.912 166.64 157.662 166.712 157.459 166.855C157.264 166.991 157.167 167.156 157.167 167.351C157.167 167.427 157.175 167.524 157.192 167.643C157.218 167.761 157.23 167.858 157.23 167.935C157.23 168.104 157.163 168.248 157.027 168.366C156.9 168.485 156.752 168.544 156.583 168.544C156.414 168.544 156.266 168.485 156.139 168.366C156.02 168.239 155.961 168.091 155.961 167.922C155.961 167.736 156.012 167.545 156.113 167.351C156.223 167.156 156.371 166.982 156.558 166.83C156.752 166.661 157.01 166.53 157.332 166.437C157.662 166.343 158.018 166.297 158.398 166.297C158.839 166.297 159.207 166.373 159.503 166.525C159.808 166.669 160.04 166.872 160.201 167.135C160.303 167.304 160.375 167.503 160.417 167.731C160.459 167.951 160.48 168.252 160.48 168.633V171.477ZM159.312 169.128C158.872 169.289 158.496 169.445 158.183 169.598C157.878 169.742 157.628 169.894 157.434 170.055C157.247 170.207 157.112 170.372 157.027 170.55C156.943 170.728 156.9 170.922 156.9 171.134V171.197C156.9 171.35 156.926 171.498 156.977 171.642C157.027 171.777 157.095 171.896 157.18 171.997C157.273 172.099 157.379 172.179 157.497 172.238C157.616 172.298 157.738 172.327 157.865 172.327C158.018 172.327 158.187 172.298 158.373 172.238C158.568 172.171 158.75 172.09 158.919 171.997C159.088 171.904 159.194 171.807 159.236 171.705C159.287 171.604 159.312 171.443 159.312 171.223V169.128ZM161.852 163.732C162.105 163.673 162.33 163.622 162.524 163.58C162.728 163.529 162.918 163.479 163.096 163.428C163.282 163.377 163.46 163.326 163.629 163.275C163.798 163.225 163.976 163.165 164.162 163.098L164.226 163.136V171.781C164.226 171.984 164.238 172.149 164.264 172.276C164.289 172.395 164.34 172.492 164.416 172.568C164.492 172.636 164.598 172.687 164.733 172.721C164.877 172.755 165.063 172.78 165.292 172.797V173H161.89V172.797C162.118 172.771 162.304 172.742 162.448 172.708C162.592 172.666 162.706 172.606 162.791 172.53C162.876 172.446 162.931 172.34 162.956 172.213C162.99 172.086 163.007 171.925 163.007 171.73V164.824C163.007 164.486 162.96 164.257 162.867 164.139C162.783 164.012 162.626 163.948 162.397 163.948C162.33 163.948 162.254 163.952 162.169 163.961C162.093 163.961 162.017 163.965 161.94 163.974H161.852V163.732ZM171.767 170.728C171.462 171.523 171.047 172.124 170.522 172.53C170.006 172.937 169.397 173.14 168.694 173.14C168.28 173.14 167.903 173.063 167.564 172.911C167.234 172.759 166.951 172.543 166.714 172.264C166.477 171.984 166.295 171.646 166.168 171.248C166.041 170.85 165.978 170.402 165.978 169.902C165.978 169.369 166.049 168.882 166.193 168.442C166.346 168.002 166.553 167.626 166.815 167.312C167.086 166.991 167.408 166.741 167.78 166.563C168.153 166.386 168.563 166.297 169.012 166.297C169.393 166.297 169.74 166.369 170.053 166.513C170.374 166.657 170.645 166.86 170.865 167.122C170.958 167.241 171.035 167.359 171.094 167.478C171.161 167.596 171.216 167.727 171.259 167.871C171.31 168.015 171.352 168.176 171.386 168.354C171.42 168.531 171.453 168.734 171.487 168.963H167.031C167.048 169.428 167.086 169.813 167.146 170.118C167.213 170.414 167.319 170.702 167.463 170.981C167.878 171.76 168.487 172.149 169.291 172.149C169.757 172.149 170.159 172.035 170.497 171.807C170.844 171.578 171.191 171.189 171.538 170.639L171.767 170.728ZM170.015 168.48C169.922 167.854 169.769 167.423 169.558 167.186C169.354 166.94 169.033 166.817 168.593 166.817C168.144 166.817 167.793 166.949 167.539 167.211C167.294 167.473 167.133 167.896 167.057 168.48H170.015ZM172.287 166.982C172.685 166.872 173.028 166.771 173.315 166.678C173.612 166.585 173.933 166.47 174.28 166.335L174.395 166.36V167.516C174.64 167.287 174.856 167.097 175.042 166.944C175.228 166.792 175.397 166.674 175.55 166.589C175.711 166.496 175.863 166.432 176.007 166.398C176.159 166.356 176.32 166.335 176.489 166.335C177.022 166.335 177.441 166.525 177.746 166.906C178.051 167.287 178.203 167.82 178.203 168.506V171.832C178.203 172.179 178.262 172.416 178.381 172.543C178.499 172.67 178.732 172.755 179.079 172.797V173H176.07V172.797C176.248 172.78 176.396 172.75 176.515 172.708C176.633 172.666 176.726 172.598 176.794 172.505C176.87 172.412 176.921 172.289 176.946 172.137C176.972 171.984 176.984 171.794 176.984 171.565V168.531C176.984 167.6 176.633 167.135 175.931 167.135C175.812 167.135 175.698 167.147 175.588 167.173C175.478 167.198 175.364 167.241 175.245 167.3C175.135 167.359 175.012 167.444 174.877 167.554C174.75 167.664 174.598 167.799 174.42 167.96V172.035C174.42 172.298 174.488 172.484 174.623 172.594C174.758 172.695 175.012 172.763 175.385 172.797V173H172.312V172.797C172.499 172.78 172.647 172.755 172.757 172.721C172.875 172.678 172.968 172.615 173.036 172.53C173.104 172.446 173.15 172.34 173.176 172.213C173.201 172.077 173.214 171.908 173.214 171.705V168.1C173.214 167.744 173.176 167.503 173.1 167.376C173.023 167.241 172.884 167.173 172.681 167.173C172.528 167.173 172.397 167.194 172.287 167.236V166.982ZM183.002 166.932H181.529V171.096C181.529 171.561 181.589 171.896 181.707 172.099C181.826 172.293 182.016 172.391 182.278 172.391C182.448 172.391 182.596 172.357 182.723 172.289C182.85 172.213 182.998 172.077 183.167 171.883L183.345 172.061C182.888 172.78 182.304 173.14 181.593 173.14C180.738 173.14 180.311 172.526 180.311 171.299V166.932H179.549C179.515 166.923 179.498 166.894 179.498 166.843C179.498 166.758 179.578 166.665 179.739 166.563C180.12 166.343 180.59 165.827 181.148 165.015C181.191 164.947 181.237 164.883 181.288 164.824C181.347 164.757 181.398 164.685 181.44 164.608C181.474 164.608 181.495 164.621 181.504 164.646C181.521 164.672 181.529 164.723 181.529 164.799V166.475H183.002V166.932ZM186.963 166.335C187.428 166.335 187.856 166.415 188.245 166.576C188.634 166.737 188.969 166.965 189.248 167.262C189.536 167.549 189.76 167.892 189.921 168.29C190.082 168.688 190.162 169.128 190.162 169.61C190.162 170.118 190.077 170.588 189.908 171.02C189.747 171.443 189.523 171.815 189.235 172.137C188.948 172.45 188.605 172.695 188.207 172.873C187.818 173.051 187.395 173.14 186.938 173.14C186.48 173.14 186.057 173.055 185.668 172.886C185.279 172.716 184.944 172.479 184.665 172.175C184.386 171.87 184.166 171.51 184.005 171.096C183.844 170.681 183.764 170.228 183.764 169.737C183.764 169.238 183.84 168.781 183.992 168.366C184.153 167.943 184.373 167.583 184.652 167.287C184.932 166.982 185.266 166.75 185.655 166.589C186.053 166.42 186.489 166.335 186.963 166.335ZM186.747 166.741C186.239 166.741 185.833 166.949 185.528 167.363C185.224 167.778 185.071 168.328 185.071 169.014C185.071 169.53 185.126 170.034 185.236 170.524C185.346 171.007 185.503 171.438 185.706 171.819C185.858 172.116 186.062 172.344 186.315 172.505C186.569 172.666 186.844 172.746 187.141 172.746C187.674 172.746 188.089 172.513 188.385 172.048C188.689 171.574 188.842 170.926 188.842 170.105C188.842 169.488 188.753 168.912 188.575 168.379C188.397 167.846 188.156 167.444 187.852 167.173C187.691 167.021 187.521 166.91 187.344 166.843C187.166 166.775 186.967 166.741 186.747 166.741ZM200.547 170.728C200.242 171.523 199.827 172.124 199.303 172.53C198.786 172.937 198.177 173.14 197.475 173.14C197.06 173.14 196.683 173.063 196.345 172.911C196.015 172.759 195.731 172.543 195.494 172.264C195.257 171.984 195.075 171.646 194.948 171.248C194.821 170.85 194.758 170.402 194.758 169.902C194.758 169.369 194.83 168.882 194.974 168.442C195.126 168.002 195.333 167.626 195.596 167.312C195.867 166.991 196.188 166.741 196.561 166.563C196.933 166.386 197.343 166.297 197.792 166.297C198.173 166.297 198.52 166.369 198.833 166.513C199.155 166.657 199.425 166.86 199.646 167.122C199.739 167.241 199.815 167.359 199.874 167.478C199.942 167.596 199.997 167.727 200.039 167.871C200.09 168.015 200.132 168.176 200.166 168.354C200.2 168.531 200.234 168.734 200.268 168.963H195.812C195.828 169.428 195.867 169.813 195.926 170.118C195.993 170.414 196.099 170.702 196.243 170.981C196.658 171.76 197.267 172.149 198.071 172.149C198.537 172.149 198.939 172.035 199.277 171.807C199.624 171.578 199.971 171.189 200.318 170.639L200.547 170.728ZM198.795 168.48C198.702 167.854 198.549 167.423 198.338 167.186C198.135 166.94 197.813 166.817 197.373 166.817C196.924 166.817 196.573 166.949 196.319 167.211C196.074 167.473 195.913 167.896 195.837 168.48H198.795ZM213.306 166.475C213.238 166.238 213.17 166.035 213.103 165.865C213.035 165.688 212.963 165.531 212.887 165.396C212.819 165.252 212.739 165.125 212.646 165.015C212.561 164.905 212.459 164.79 212.341 164.672C212.053 164.376 211.723 164.156 211.351 164.012C210.987 163.859 210.597 163.783 210.183 163.783C209.658 163.783 209.18 163.885 208.748 164.088C208.325 164.291 207.961 164.583 207.656 164.964C207.36 165.336 207.132 165.789 206.971 166.322C206.81 166.855 206.729 167.448 206.729 168.1C206.729 168.946 206.844 169.687 207.072 170.321C207.301 170.956 207.627 171.451 208.05 171.807C208.685 172.314 209.442 172.568 210.322 172.568C210.923 172.568 211.478 172.454 211.985 172.226C212.493 171.997 213.018 171.625 213.56 171.108L213.813 171.362C213.373 171.946 212.811 172.399 212.125 172.721C211.448 173.042 210.695 173.203 209.865 173.203C209.146 173.203 208.49 173.085 207.897 172.848C207.305 172.611 206.797 172.281 206.374 171.857C205.951 171.426 205.621 170.91 205.384 170.309C205.155 169.708 205.041 169.039 205.041 168.303C205.041 167.465 205.185 166.712 205.473 166.043C205.76 165.366 206.184 164.799 206.742 164.342C207.182 163.986 207.677 163.711 208.228 163.517C208.778 163.313 209.332 163.212 209.891 163.212C210.61 163.212 211.321 163.33 212.023 163.567C212.26 163.652 212.451 163.694 212.595 163.694C212.739 163.694 212.861 163.652 212.963 163.567C213.073 163.483 213.149 163.364 213.191 163.212H213.496L213.636 166.475H213.306ZM217.927 166.335C218.392 166.335 218.82 166.415 219.209 166.576C219.598 166.737 219.933 166.965 220.212 167.262C220.5 167.549 220.724 167.892 220.885 168.29C221.046 168.688 221.126 169.128 221.126 169.61C221.126 170.118 221.041 170.588 220.872 171.02C220.711 171.443 220.487 171.815 220.199 172.137C219.911 172.45 219.569 172.695 219.171 172.873C218.782 173.051 218.358 173.14 217.901 173.14C217.444 173.14 217.021 173.055 216.632 172.886C216.243 172.716 215.908 172.479 215.629 172.175C215.35 171.87 215.13 171.51 214.969 171.096C214.808 170.681 214.728 170.228 214.728 169.737C214.728 169.238 214.804 168.781 214.956 168.366C215.117 167.943 215.337 167.583 215.616 167.287C215.896 166.982 216.23 166.75 216.619 166.589C217.017 166.42 217.453 166.335 217.927 166.335ZM217.711 166.741C217.203 166.741 216.797 166.949 216.492 167.363C216.188 167.778 216.035 168.328 216.035 169.014C216.035 169.53 216.09 170.034 216.2 170.524C216.31 171.007 216.467 171.438 216.67 171.819C216.822 172.116 217.025 172.344 217.279 172.505C217.533 172.666 217.808 172.746 218.104 172.746C218.638 172.746 219.052 172.513 219.349 172.048C219.653 171.574 219.806 170.926 219.806 170.105C219.806 169.488 219.717 168.912 219.539 168.379C219.361 167.846 219.12 167.444 218.815 167.173C218.655 167.021 218.485 166.91 218.308 166.843C218.13 166.775 217.931 166.741 217.711 166.741ZM221.786 166.982C222.184 166.872 222.527 166.771 222.814 166.678C223.111 166.585 223.432 166.47 223.779 166.335L223.894 166.36V167.516C224.139 167.287 224.355 167.097 224.541 166.944C224.727 166.792 224.896 166.674 225.049 166.589C225.21 166.496 225.362 166.432 225.506 166.398C225.658 166.356 225.819 166.335 225.988 166.335C226.521 166.335 226.94 166.525 227.245 166.906C227.55 167.287 227.702 167.82 227.702 168.506V171.832C227.702 172.179 227.761 172.416 227.88 172.543C227.998 172.67 228.231 172.755 228.578 172.797V173H225.569V172.797C225.747 172.78 225.895 172.75 226.014 172.708C226.132 172.666 226.225 172.598 226.293 172.505C226.369 172.412 226.42 172.289 226.445 172.137C226.471 171.984 226.483 171.794 226.483 171.565V168.531C226.483 167.6 226.132 167.135 225.43 167.135C225.311 167.135 225.197 167.147 225.087 167.173C224.977 167.198 224.863 167.241 224.744 167.3C224.634 167.359 224.511 167.444 224.376 167.554C224.249 167.664 224.097 167.799 223.919 167.96V172.035C223.919 172.298 223.987 172.484 224.122 172.594C224.257 172.695 224.511 172.763 224.884 172.797V173H221.812V172.797C221.998 172.78 222.146 172.755 222.256 172.721C222.374 172.678 222.467 172.615 222.535 172.53C222.603 172.446 222.649 172.34 222.675 172.213C222.7 172.077 222.713 171.908 222.713 171.705V168.1C222.713 167.744 222.675 167.503 222.599 167.376C222.522 167.241 222.383 167.173 222.18 167.173C222.027 167.173 221.896 167.194 221.786 167.236V166.982ZM231.079 171.527C231.079 171.773 231.092 171.976 231.117 172.137C231.143 172.289 231.189 172.412 231.257 172.505C231.325 172.59 231.422 172.653 231.549 172.695C231.684 172.738 231.858 172.771 232.069 172.797V173H228.934V172.797C229.145 172.763 229.31 172.725 229.429 172.683C229.556 172.64 229.649 172.577 229.708 172.492C229.776 172.399 229.818 172.281 229.835 172.137C229.852 171.984 229.86 171.781 229.86 171.527V164.697C229.86 164.545 229.852 164.422 229.835 164.329C229.818 164.228 229.78 164.151 229.721 164.101C229.67 164.041 229.594 164.003 229.492 163.986C229.399 163.969 229.276 163.961 229.124 163.961C229.039 163.961 228.98 163.965 228.946 163.974V163.732L229.34 163.631C229.543 163.563 229.721 163.508 229.873 163.466C230.025 163.415 230.165 163.373 230.292 163.339C230.419 163.297 230.537 163.258 230.647 163.225C230.757 163.182 230.876 163.14 231.003 163.098L231.079 163.148V167.566C231.418 167.118 231.748 166.8 232.069 166.614C232.399 166.428 232.776 166.335 233.199 166.335C233.809 166.335 234.257 166.53 234.545 166.919C234.833 167.308 234.977 167.884 234.977 168.646V171.527C234.977 171.773 234.985 171.972 235.002 172.124C235.019 172.268 235.057 172.386 235.116 172.479C235.184 172.564 235.277 172.632 235.396 172.683C235.514 172.725 235.671 172.763 235.865 172.797V173H232.793V172.797C233.005 172.771 233.174 172.738 233.301 172.695C233.428 172.653 233.525 172.59 233.593 172.505C233.669 172.412 233.715 172.289 233.732 172.137C233.758 171.976 233.771 171.773 233.771 171.527V168.671C233.771 167.647 233.415 167.135 232.704 167.135C232.408 167.135 232.137 167.202 231.892 167.338C231.655 167.465 231.384 167.698 231.079 168.036V171.527ZM242.2 170.728C241.896 171.523 241.481 172.124 240.956 172.53C240.44 172.937 239.83 173.14 239.128 173.14C238.713 173.14 238.337 173.063 237.998 172.911C237.668 172.759 237.384 172.543 237.147 172.264C236.91 171.984 236.729 171.646 236.602 171.248C236.475 170.85 236.411 170.402 236.411 169.902C236.411 169.369 236.483 168.882 236.627 168.442C236.779 168.002 236.987 167.626 237.249 167.312C237.52 166.991 237.841 166.741 238.214 166.563C238.586 166.386 238.997 166.297 239.445 166.297C239.826 166.297 240.173 166.369 240.486 166.513C240.808 166.657 241.079 166.86 241.299 167.122C241.392 167.241 241.468 167.359 241.527 167.478C241.595 167.596 241.65 167.727 241.692 167.871C241.743 168.015 241.785 168.176 241.819 168.354C241.853 168.531 241.887 168.734 241.921 168.963H237.465C237.482 169.428 237.52 169.813 237.579 170.118C237.647 170.414 237.753 170.702 237.896 170.981C238.311 171.76 238.921 172.149 239.725 172.149C240.19 172.149 240.592 172.035 240.931 171.807C241.278 171.578 241.625 171.189 241.972 170.639L242.2 170.728ZM240.448 168.48C240.355 167.854 240.203 167.423 239.991 167.186C239.788 166.94 239.466 166.817 239.026 166.817C238.578 166.817 238.227 166.949 237.973 167.211C237.727 167.473 237.566 167.896 237.49 168.48H240.448ZM248.459 170.867C248.34 171.096 248.23 171.295 248.129 171.464C248.036 171.625 247.943 171.773 247.85 171.908C247.765 172.035 247.676 172.149 247.583 172.251C247.49 172.353 247.388 172.446 247.278 172.53C246.771 172.937 246.208 173.14 245.59 173.14C245.192 173.14 244.824 173.063 244.485 172.911C244.147 172.75 243.855 172.526 243.609 172.238C243.372 171.951 243.186 171.612 243.051 171.223C242.915 170.833 242.848 170.402 242.848 169.928C242.848 169.327 242.949 168.777 243.152 168.277C243.364 167.77 243.664 167.355 244.054 167.033C244.35 166.788 244.663 166.606 244.993 166.487C245.332 166.36 245.674 166.297 246.021 166.297C246.326 166.297 246.614 166.339 246.885 166.424C247.156 166.5 247.393 166.606 247.596 166.741C247.799 166.877 247.96 167.037 248.078 167.224C248.197 167.401 248.256 167.592 248.256 167.795C248.256 167.964 248.188 168.112 248.053 168.239C247.926 168.366 247.769 168.43 247.583 168.43C247.414 168.43 247.27 168.366 247.151 168.239C247.033 168.112 246.944 167.943 246.885 167.731L246.796 167.414C246.728 167.143 246.631 166.961 246.504 166.868C246.385 166.775 246.195 166.729 245.933 166.729C245.636 166.729 245.366 166.792 245.12 166.919C244.883 167.037 244.68 167.211 244.511 167.439C244.341 167.668 244.206 167.939 244.104 168.252C244.011 168.565 243.965 168.912 243.965 169.293C243.965 169.699 244.02 170.076 244.13 170.423C244.24 170.77 244.392 171.066 244.587 171.312C244.782 171.557 245.014 171.752 245.285 171.896C245.564 172.031 245.869 172.099 246.199 172.099C246.614 172.099 246.974 172.001 247.278 171.807C247.583 171.604 247.909 171.248 248.256 170.74L248.459 170.867ZM251.519 166.373V171.527C251.519 171.79 251.527 172.001 251.544 172.162C251.569 172.314 251.62 172.437 251.696 172.53C251.772 172.615 251.878 172.674 252.014 172.708C252.158 172.742 252.352 172.771 252.598 172.797V173H249.157V172.797C249.411 172.78 249.61 172.755 249.754 172.721C249.906 172.678 250.021 172.615 250.097 172.53C250.181 172.437 250.236 172.314 250.262 172.162C250.287 172.001 250.3 171.79 250.3 171.527V168.163C250.3 167.841 250.262 167.617 250.186 167.49C250.118 167.355 249.999 167.287 249.83 167.287C249.762 167.287 249.682 167.291 249.589 167.3C249.504 167.308 249.415 167.321 249.322 167.338L249.221 167.351V167.135L251.455 166.335L251.519 166.373ZM250.795 163.098C250.998 163.098 251.172 163.174 251.315 163.326C251.459 163.47 251.531 163.644 251.531 163.847C251.531 164.058 251.459 164.236 251.315 164.38C251.18 164.515 251.002 164.583 250.782 164.583C250.571 164.583 250.397 164.515 250.262 164.38C250.126 164.236 250.059 164.058 250.059 163.847C250.059 163.644 250.131 163.47 250.274 163.326C250.418 163.174 250.592 163.098 250.795 163.098ZM253.232 166.982C253.436 166.932 253.618 166.881 253.778 166.83C253.948 166.779 254.113 166.729 254.273 166.678C254.434 166.627 254.591 166.576 254.743 166.525C254.904 166.466 255.077 166.403 255.264 166.335L255.365 166.36V167.452C255.67 167.224 255.928 167.037 256.14 166.894C256.351 166.741 256.537 166.627 256.698 166.551C256.868 166.466 257.02 166.411 257.155 166.386C257.291 166.352 257.439 166.335 257.6 166.335C258.387 166.335 258.899 166.745 259.136 167.566C259.542 167.135 259.931 166.822 260.304 166.627C260.685 166.432 261.087 166.335 261.51 166.335C262.635 166.335 263.198 167.19 263.198 168.899V171.896C263.198 172.446 263.41 172.733 263.833 172.759L264.201 172.797V173H261.027V172.797C261.239 172.771 261.404 172.742 261.522 172.708C261.649 172.666 261.743 172.611 261.802 172.543C261.869 172.467 261.912 172.365 261.929 172.238C261.954 172.111 261.967 171.942 261.967 171.73V168.684C261.967 168.379 261.95 168.125 261.916 167.922C261.882 167.719 261.823 167.558 261.738 167.439C261.654 167.312 261.539 167.224 261.396 167.173C261.26 167.114 261.091 167.084 260.888 167.084C260.549 167.084 260.257 167.156 260.012 167.3C259.766 167.435 259.534 167.66 259.313 167.973V171.629C259.313 171.849 259.326 172.035 259.352 172.188C259.385 172.331 259.44 172.45 259.517 172.543C259.601 172.628 259.711 172.691 259.847 172.733C259.982 172.767 260.151 172.788 260.354 172.797V173H257.104V172.797C257.308 172.78 257.473 172.755 257.6 172.721C257.735 172.687 257.837 172.632 257.904 172.556C257.98 172.479 258.031 172.378 258.057 172.251C258.082 172.124 258.095 171.959 258.095 171.756V168.607C258.095 167.592 257.782 167.084 257.155 167.084C256.884 167.084 256.601 167.143 256.305 167.262C256.017 167.38 255.788 167.524 255.619 167.693C255.492 167.837 255.429 167.922 255.429 167.947V172.035C255.429 172.323 255.492 172.518 255.619 172.619C255.755 172.721 256.017 172.78 256.406 172.797V173H253.194V172.797C253.397 172.788 253.562 172.767 253.689 172.733C253.825 172.7 253.931 172.645 254.007 172.568C254.083 172.492 254.134 172.391 254.159 172.264C254.193 172.128 254.21 171.963 254.21 171.769V168.1C254.21 167.744 254.172 167.503 254.096 167.376C254.028 167.241 253.897 167.173 253.702 167.173C253.618 167.173 253.541 167.181 253.474 167.198C253.414 167.207 253.334 167.219 253.232 167.236V166.982ZM270.384 170.728C270.079 171.523 269.664 172.124 269.14 172.53C268.623 172.937 268.014 173.14 267.312 173.14C266.897 173.14 266.52 173.063 266.182 172.911C265.852 172.759 265.568 172.543 265.331 172.264C265.094 171.984 264.912 171.646 264.785 171.248C264.658 170.85 264.595 170.402 264.595 169.902C264.595 169.369 264.667 168.882 264.811 168.442C264.963 168.002 265.17 167.626 265.433 167.312C265.703 166.991 266.025 166.741 266.397 166.563C266.77 166.386 267.18 166.297 267.629 166.297C268.01 166.297 268.357 166.369 268.67 166.513C268.992 166.657 269.262 166.86 269.482 167.122C269.576 167.241 269.652 167.359 269.711 167.478C269.779 167.596 269.834 167.727 269.876 167.871C269.927 168.015 269.969 168.176 270.003 168.354C270.037 168.531 270.071 168.734 270.104 168.963H265.648C265.665 169.428 265.703 169.813 265.763 170.118C265.83 170.414 265.936 170.702 266.08 170.981C266.495 171.76 267.104 172.149 267.908 172.149C268.374 172.149 268.776 172.035 269.114 171.807C269.461 171.578 269.808 171.189 270.155 170.639L270.384 170.728ZM268.632 168.48C268.539 167.854 268.386 167.423 268.175 167.186C267.972 166.94 267.65 166.817 267.21 166.817C266.761 166.817 266.41 166.949 266.156 167.211C265.911 167.473 265.75 167.896 265.674 168.48H268.632ZM270.904 166.982C271.302 166.872 271.645 166.771 271.933 166.678C272.229 166.585 272.55 166.47 272.897 166.335L273.012 166.36V167.516C273.257 167.287 273.473 167.097 273.659 166.944C273.845 166.792 274.015 166.674 274.167 166.589C274.328 166.496 274.48 166.432 274.624 166.398C274.776 166.356 274.937 166.335 275.106 166.335C275.64 166.335 276.059 166.525 276.363 166.906C276.668 167.287 276.82 167.82 276.82 168.506V171.832C276.82 172.179 276.88 172.416 276.998 172.543C277.117 172.67 277.349 172.755 277.696 172.797V173H274.688V172.797C274.865 172.78 275.013 172.75 275.132 172.708C275.25 172.666 275.343 172.598 275.411 172.505C275.487 172.412 275.538 172.289 275.563 172.137C275.589 171.984 275.602 171.794 275.602 171.565V168.531C275.602 167.6 275.25 167.135 274.548 167.135C274.429 167.135 274.315 167.147 274.205 167.173C274.095 167.198 273.981 167.241 273.862 167.3C273.752 167.359 273.63 167.444 273.494 167.554C273.367 167.664 273.215 167.799 273.037 167.96V172.035C273.037 172.298 273.105 172.484 273.24 172.594C273.376 172.695 273.63 172.763 274.002 172.797V173H270.93V172.797C271.116 172.78 271.264 172.755 271.374 172.721C271.493 172.678 271.586 172.615 271.653 172.53C271.721 172.446 271.768 172.34 271.793 172.213C271.818 172.077 271.831 171.908 271.831 171.705V168.1C271.831 167.744 271.793 167.503 271.717 167.376C271.641 167.241 271.501 167.173 271.298 167.173C271.146 167.173 271.014 167.194 270.904 167.236V166.982ZM281.619 166.932H280.146V171.096C280.146 171.561 280.206 171.896 280.324 172.099C280.443 172.293 280.633 172.391 280.896 172.391C281.065 172.391 281.213 172.357 281.34 172.289C281.467 172.213 281.615 172.077 281.784 171.883L281.962 172.061C281.505 172.78 280.921 173.14 280.21 173.14C279.355 173.14 278.928 172.526 278.928 171.299V166.932H278.166C278.132 166.923 278.115 166.894 278.115 166.843C278.115 166.758 278.196 166.665 278.356 166.563C278.737 166.343 279.207 165.827 279.766 165.015C279.808 164.947 279.854 164.883 279.905 164.824C279.965 164.757 280.015 164.685 280.058 164.608C280.091 164.608 280.113 164.621 280.121 164.646C280.138 164.672 280.146 164.723 280.146 164.799V166.475H281.619V166.932ZM285.58 166.335C286.046 166.335 286.473 166.415 286.862 166.576C287.252 166.737 287.586 166.965 287.865 167.262C288.153 167.549 288.377 167.892 288.538 168.29C288.699 168.688 288.779 169.128 288.779 169.61C288.779 170.118 288.695 170.588 288.525 171.02C288.365 171.443 288.14 171.815 287.853 172.137C287.565 172.45 287.222 172.695 286.824 172.873C286.435 173.051 286.012 173.14 285.555 173.14C285.098 173.14 284.674 173.055 284.285 172.886C283.896 172.716 283.562 172.479 283.282 172.175C283.003 171.87 282.783 171.51 282.622 171.096C282.461 170.681 282.381 170.228 282.381 169.737C282.381 169.238 282.457 168.781 282.609 168.366C282.77 167.943 282.99 167.583 283.27 167.287C283.549 166.982 283.883 166.75 284.272 166.589C284.67 166.42 285.106 166.335 285.58 166.335ZM285.364 166.741C284.856 166.741 284.45 166.949 284.146 167.363C283.841 167.778 283.688 168.328 283.688 169.014C283.688 169.53 283.743 170.034 283.854 170.524C283.964 171.007 284.12 171.438 284.323 171.819C284.476 172.116 284.679 172.344 284.933 172.505C285.187 172.666 285.462 172.746 285.758 172.746C286.291 172.746 286.706 172.513 287.002 172.048C287.307 171.574 287.459 170.926 287.459 170.105C287.459 169.488 287.37 168.912 287.192 168.379C287.015 167.846 286.773 167.444 286.469 167.173C286.308 167.021 286.139 166.91 285.961 166.843C285.783 166.775 285.584 166.741 285.364 166.741Z" fill="#9A9A9A"/>
</g>
<g filter="url(#filter3_d_53_51)">
<path d="M43.1875 76.7188C48.25 76.7188 53.0625 77.7812 57.625 79.9062C62.25 82.0312 66.1562 84.9688 69.3438 88.7188C71.9688 91.9062 74 95.625 75.4375 99.875C76.875 104.125 77.5938 108.688 77.5938 113.562C77.5938 119 76.7188 124 74.9688 128.562C73.2812 133.062 70.875 136.938 67.75 140.188C64.6875 143.438 61 145.969 56.6875 147.781C52.4375 149.594 47.75 150.5 42.625 150.5C37.4375 150.5 32.6875 149.594 28.375 147.781C24.0625 145.969 20.375 143.438 17.3125 140.188C14.25 136.875 11.875 132.938 10.1875 128.375C8.5 123.812 7.65625 118.781 7.65625 113.281C7.65625 107.906 8.53125 102.969 10.2812 98.4688C12.0312 93.9688 14.4688 90.125 17.5938 86.9375C20.7188 83.6875 24.4375 81.1875 28.75 79.4375C33.125 77.625 37.9375 76.7188 43.1875 76.7188ZM42.25 80.4688C39.3125 80.4688 36.5 81.1562 33.8125 82.5312C31.125 83.8438 28.7812 85.6875 26.7812 88.0625C25.7188 89.3125 24.75 90.875 23.875 92.75C23.0625 94.625 22.3438 96.6875 21.7188 98.9375C21.0938 101.125 20.625 103.469 20.3125 105.969C20 108.469 19.8438 110.969 19.8438 113.469C19.8438 119.906 20.6875 125.625 22.375 130.625C24.0625 135.625 26.4062 139.375 29.4062 141.875C33.1562 145.062 37.5938 146.656 42.7188 146.656C45.4062 146.656 47.9375 146.156 50.3125 145.156C52.75 144.156 54.875 142.75 56.6875 140.938C62.5 135.25 65.4062 125.938 65.4062 113C65.4062 106.812 64.5312 101.312 62.7812 96.5C61.0938 91.6875 58.7188 87.9688 55.6562 85.3438C51.7188 82.0938 47.25 80.4688 42.25 80.4688ZM126.062 149H124.469L97.5625 90.2188V133.25C97.5625 136 97.6875 138.25 97.9375 140C98.25 141.688 98.7812 143.031 99.5312 144.031C100.281 145.031 101.312 145.75 102.625 146.188C103.938 146.625 105.625 146.906 107.688 147.031V149H82.5625V147.031C84.75 146.844 86.5 146.562 87.8125 146.188C89.1875 145.75 90.2188 145.031 90.9062 144.031C91.6562 143.031 92.1562 141.688 92.4062 140C92.6562 138.25 92.7812 136 92.7812 133.25V89.8438C92.7812 87.9062 92.6562 86.3438 92.4062 85.1562C92.2188 83.9688 91.75 83.0312 91 82.3438C90.3125 81.6562 89.3125 81.1875 88 80.9375C86.6875 80.625 84.9375 80.4062 82.75 80.2812V78.125H103.938L128.594 132.219L152.406 78.125H173.594V80.2812C171.594 80.4062 170 80.625 168.812 80.9375C167.625 81.25 166.688 81.75 166 82.4375C165.312 83.125 164.844 84.0625 164.594 85.25C164.406 86.4375 164.312 87.9688 164.312 89.8438V137.469C164.312 139.344 164.438 140.875 164.688 142.062C164.938 143.25 165.375 144.188 166 144.875C166.688 145.562 167.625 146.062 168.812 146.375C170.062 146.688 171.656 146.906 173.594 147.031V149H143.594V147.031C145.719 146.906 147.406 146.688 148.656 146.375C149.969 146.062 150.969 145.531 151.656 144.781C152.344 143.969 152.781 142.906 152.969 141.594C153.219 140.219 153.344 138.406 153.344 136.156V87.6875L126.062 149ZM197.875 82.625C194.875 82.625 192.406 82.7812 190.469 83.0938C188.594 83.4062 187.031 84.0625 185.781 85.0625C184.594 86.0625 183.625 87.4688 182.875 89.2812C182.188 91.0312 181.531 93.375 180.906 96.3125H178.281L178.938 78.125H239.312L239.969 96.3125H237.344C236.719 93.375 236.031 91.0312 235.281 89.2812C234.594 87.4688 233.656 86.0625 232.469 85.0625C231.281 84.0625 229.719 83.4062 227.781 83.0938C225.844 82.7812 223.344 82.625 220.281 82.625H214.562V137.469C214.562 139.406 214.688 140.969 214.938 142.156C215.188 143.344 215.656 144.281 216.344 144.969C217.094 145.656 218.125 146.156 219.438 146.469C220.812 146.719 222.594 146.906 224.781 147.031V149H193.656V147.031C195.844 146.906 197.594 146.719 198.906 146.469C200.219 146.156 201.219 145.625 201.906 144.875C202.656 144.062 203.125 142.969 203.312 141.594C203.562 140.219 203.688 138.406 203.688 136.156V82.625H197.875ZM305.781 100.812C305.281 99.0625 304.781 97.5625 304.281 96.3125C303.781 95 303.25 93.8438 302.688 92.8438C302.188 91.7812 301.594 90.8438 300.906 90.0312C300.281 89.2188 299.531 88.375 298.656 87.5C296.531 85.3125 294.094 83.6875 291.344 82.625C288.656 81.5 285.781 80.9375 282.719 80.9375C278.844 80.9375 275.312 81.6875 272.125 83.1875C269 84.6875 266.312 86.8438 264.062 89.6562C261.875 92.4062 260.188 95.75 259 99.6875C257.812 103.625 257.219 108 257.219 112.812C257.219 119.062 258.062 124.531 259.75 129.219C261.438 133.906 263.844 137.562 266.969 140.188C271.656 143.938 277.25 145.812 283.75 145.812C288.188 145.812 292.281 144.969 296.031 143.281C299.781 141.594 303.656 138.844 307.656 135.031L309.531 136.906C306.281 141.219 302.125 144.562 297.062 146.938C292.062 149.312 286.5 150.5 280.375 150.5C275.062 150.5 270.219 149.625 265.844 147.875C261.469 146.125 257.719 143.688 254.594 140.562C251.469 137.375 249.031 133.562 247.281 129.125C245.594 124.688 244.75 119.75 244.75 114.312C244.75 108.125 245.812 102.562 247.938 97.625C250.062 92.625 253.188 88.4375 257.312 85.0625C260.562 82.4375 264.219 80.4062 268.281 78.9688C272.344 77.4688 276.438 76.7188 280.562 76.7188C285.875 76.7188 291.125 77.5938 296.312 79.3438C298.062 79.9688 299.469 80.2812 300.531 80.2812C301.594 80.2812 302.5 79.9688 303.25 79.3438C304.062 78.7188 304.625 77.8438 304.938 76.7188H307.188L308.219 100.812H305.781Z" fill="#BCBCBC"/>
</g>
<defs>
<filter id="filter0_d_53_51" x="113" y="0" width="100.491" height="239" filterUnits="userSpaceOnUse" color-interpolation-filters="sRGB">
<feFlood flood-opacity="0" result="BackgroundImageFix"/>
<feColorMatrix in="SourceAlpha" type="matrix" values="0 0 0 0 0 0 0 0 0 0 0 0 0 0 0 0 0 0 127 0" result="hardAlpha"/>
<feOffset dy="4"/>
<feGaussianBlur stdDeviation="2"/>
<feComposite in2="hardAlpha" operator="out"/>
<feColorMatrix type="matrix" values="0 0 0 0 0 0 0 0 0 0 0 0 0 0 0 0 0 0 0.25 0"/>
<feBlend mode="normal" in2="BackgroundImageFix" result="effect1_dropShadow_53_51"/>
<feBlend mode="normal" in="SourceGraphic" in2="effect1_dropShadow_53_51" result="shape"/>
</filter>
<filter id="filter1_d_53_51" x="0" y="156.5" width="326" height="9" filterUnits="userSpaceOnUse" color-interpolation-filters="sRGB">
<feFlood flood-opacity="0" result="BackgroundImageFix"/>
<feColorMatrix in="SourceAlpha" type="matrix" values="0 0 0 0 0 0 0 0 0 0 0 0 0 0 0 0 0 0 127 0" result="hardAlpha"/>
<feOffset dy="4"/>
<feGaussianBlur stdDeviation="2"/>
<feComposite in2="hardAlpha" operator="out"/>
<feColorMatrix type="matrix" values="0 0 0 0 0 0 0 0 0 0 0 0 0 0 0 0 0 0 0.25 0"/>
<feBlend mode="normal" in2="BackgroundImageFix" result="effect1_dropShadow_53_51"/>
<feBlend mode="normal" in="SourceGraphic" in2="effect1_dropShadow_53_51" result="shape"/>
</filter>
<filter id="filter2_d_53_51" x="31.4951" y="163.098" width="261.284" height="18.1055" filterUnits="userSpaceOnUse" color-interpolation-filters="sRGB">
<feFlood flood-opacity="0" result="BackgroundImageFix"/>
<feColorMatrix in="SourceAlpha" type="matrix" values="0 0 0 0 0 0 0 0 0 0 0 0 0 0 0 0 0 0 127 0" result="hardAlpha"/>
<feOffset dy="4"/>
<feGaussianBlur stdDeviation="2"/>
<feComposite in2="hardAlpha" operator="out"/>
<feColorMatrix type="matrix" values="0 0 0 0 0 0 0 0 0 0 0 0 0 0 0 0 0 0 0.25 0"/>
<feBlend mode="normal" in2="BackgroundImageFix" result="effect1_dropShadow_53_51"/>
<feBlend mode="normal" in="SourceGraphic" in2="effect1_dropShadow_53_51" result="shape"/>
</filter>
<filter id="filter3_d_53_51" x="3.65625" y="76.7188" width="309.875" height="81.7812" filterUnits="userSpaceOnUse" color-interpolation-filters="sRGB">
<feFlood flood-opacity="0" result="BackgroundImageFix"/>
<feColorMatrix in="SourceAlpha" type="matrix" values="0 0 0 0 0 0 0 0 0 0 0 0 0 0 0 0 0 0 127 0" result="hardAlpha"/>
<feOffset dy="4"/>
<feGaussianBlur stdDeviation="2"/>
<feComposite in2="hardAlpha" operator="out"/>
<feColorMatrix type="matrix" values="0 0 0 0 0 0 0 0 0 0 0 0 0 0 0 0 0 0 0.25 0"/>
<feBlend mode="normal" in2="BackgroundImageFix" result="effect1_dropShadow_53_51"/>
<feBlend mode="normal" in="SourceGraphic" in2="effect1_dropShadow_53_51" result="shape"/>
</filter>
</defs>
</svg>
